<mxfile host="app.diagrams.net" modified="2024-01-11T16:22:46.777Z" agent="Mozilla/5.0 (Windows NT 10.0; Win64; x64) AppleWebKit/537.36 (KHTML, like Gecko) Chrome/120.0.0.0 Safari/537.36 Edg/120.0.0.0" etag="e4FXEqsGjruoEKi9vMCJ" version="22.1.18" type="github">
  <diagram id="prtHgNgQTEPvFCAcTncT" name="Page-1">
    <mxGraphModel dx="1655" dy="847" grid="1" gridSize="10" guides="1" tooltips="1" connect="1" arrows="1" fold="1" page="1" pageScale="1" pageWidth="827" pageHeight="1169" math="0" shadow="0">
      <root>
        <mxCell id="0" />
        <mxCell id="1" parent="0" />
        <mxCell id="LesqCqWZ4XYTkDxak_rp-1" value="投资管理" style="swimlane;childLayout=stackLayout;resizeParent=1;resizeParentMax=0;startSize=20;html=1;" parent="1" vertex="1">
          <mxGeometry x="140.00000000000045" y="170" width="723.72" height="1360" as="geometry" />
        </mxCell>
        <mxCell id="LesqCqWZ4XYTkDxak_rp-59" style="edgeStyle=orthogonalEdgeStyle;rounded=0;orthogonalLoop=1;jettySize=auto;html=1;exitX=1;exitY=0.5;exitDx=0;exitDy=0;" parent="LesqCqWZ4XYTkDxak_rp-1" source="LesqCqWZ4XYTkDxak_rp-50" target="LesqCqWZ4XYTkDxak_rp-54" edge="1">
          <mxGeometry relative="1" as="geometry" />
        </mxCell>
        <mxCell id="LesqCqWZ4XYTkDxak_rp-61" style="edgeStyle=orthogonalEdgeStyle;rounded=0;orthogonalLoop=1;jettySize=auto;html=1;exitX=0.5;exitY=1;exitDx=0;exitDy=0;entryX=0.5;entryY=1;entryDx=0;entryDy=0;" parent="LesqCqWZ4XYTkDxak_rp-1" source="LesqCqWZ4XYTkDxak_rp-54" target="LesqCqWZ4XYTkDxak_rp-52" edge="1">
          <mxGeometry relative="1" as="geometry" />
        </mxCell>
        <mxCell id="LesqCqWZ4XYTkDxak_rp-64" style="edgeStyle=orthogonalEdgeStyle;rounded=0;orthogonalLoop=1;jettySize=auto;html=1;entryX=0;entryY=0.5;entryDx=0;entryDy=0;" parent="LesqCqWZ4XYTkDxak_rp-1" source="LesqCqWZ4XYTkDxak_rp-56" target="LesqCqWZ4XYTkDxak_rp-62" edge="1">
          <mxGeometry relative="1" as="geometry" />
        </mxCell>
        <mxCell id="LesqCqWZ4XYTkDxak_rp-2" value="用户" style="swimlane;startSize=20;html=1;" parent="LesqCqWZ4XYTkDxak_rp-1" vertex="1">
          <mxGeometry y="20" width="430" height="1340" as="geometry" />
        </mxCell>
        <mxCell id="LesqCqWZ4XYTkDxak_rp-48" value="" style="ellipse;html=1;shape=startState;fillColor=#000000;strokeColor=#ff0000;" parent="LesqCqWZ4XYTkDxak_rp-2" vertex="1">
          <mxGeometry x="205.00999999999956" y="50" width="30" height="30" as="geometry" />
        </mxCell>
        <mxCell id="LesqCqWZ4XYTkDxak_rp-49" value="" style="edgeStyle=orthogonalEdgeStyle;html=1;verticalAlign=bottom;endArrow=open;endSize=8;strokeColor=#ff0000;rounded=0;" parent="LesqCqWZ4XYTkDxak_rp-2" source="LesqCqWZ4XYTkDxak_rp-48" edge="1">
          <mxGeometry relative="1" as="geometry">
            <mxPoint x="220.00999999999956" y="100" as="targetPoint" />
          </mxGeometry>
        </mxCell>
        <mxCell id="LesqCqWZ4XYTkDxak_rp-50" value="点击投资管理" style="rounded=1;whiteSpace=wrap;html=1;shadow=0;comic=0;labelBackgroundColor=none;strokeWidth=1;fontFamily=Verdana;fontSize=12;align=center;arcSize=50;" parent="LesqCqWZ4XYTkDxak_rp-2" vertex="1">
          <mxGeometry x="215.0099999999995" y="165" width="100" height="30" as="geometry" />
        </mxCell>
        <mxCell id="LesqCqWZ4XYTkDxak_rp-71" style="edgeStyle=orthogonalEdgeStyle;rounded=0;orthogonalLoop=1;jettySize=auto;html=1;exitX=0.25;exitY=0;exitDx=0;exitDy=0;entryX=0.5;entryY=0;entryDx=0;entryDy=0;" parent="LesqCqWZ4XYTkDxak_rp-2" source="LesqCqWZ4XYTkDxak_rp-52" target="LesqCqWZ4XYTkDxak_rp-56" edge="1">
          <mxGeometry relative="1" as="geometry">
            <Array as="points">
              <mxPoint x="290" y="341" />
            </Array>
          </mxGeometry>
        </mxCell>
        <mxCell id="LesqCqWZ4XYTkDxak_rp-81" style="edgeStyle=orthogonalEdgeStyle;rounded=0;orthogonalLoop=1;jettySize=auto;html=1;exitX=0.75;exitY=0;exitDx=0;exitDy=0;entryX=0.5;entryY=0;entryDx=0;entryDy=0;" parent="LesqCqWZ4XYTkDxak_rp-2" source="LesqCqWZ4XYTkDxak_rp-52" target="LesqCqWZ4XYTkDxak_rp-80" edge="1">
          <mxGeometry relative="1" as="geometry">
            <Array as="points">
              <mxPoint x="180" y="341" />
            </Array>
          </mxGeometry>
        </mxCell>
        <mxCell id="LesqCqWZ4XYTkDxak_rp-52" value="" style="whiteSpace=wrap;html=1;rounded=0;shadow=0;comic=0;labelBackgroundColor=none;strokeWidth=1;fillColor=#000000;fontFamily=Verdana;fontSize=12;align=center;rotation=90;direction=south;" parent="LesqCqWZ4XYTkDxak_rp-2" vertex="1">
          <mxGeometry x="208.03" y="230.04" width="10" height="211.64" as="geometry" />
        </mxCell>
        <mxCell id="LesqCqWZ4XYTkDxak_rp-56" value="筛选投资时间" style="rounded=1;whiteSpace=wrap;html=1;shadow=0;comic=0;labelBackgroundColor=none;strokeWidth=1;fontFamily=Verdana;fontSize=12;align=center;arcSize=50;" parent="LesqCqWZ4XYTkDxak_rp-2" vertex="1">
          <mxGeometry x="239.97999999999956" y="372" width="100" height="30" as="geometry" />
        </mxCell>
        <mxCell id="LesqCqWZ4XYTkDxak_rp-80" value="选中一条投资信息" style="rounded=1;whiteSpace=wrap;html=1;shadow=0;comic=0;labelBackgroundColor=none;strokeWidth=1;fontFamily=Verdana;fontSize=12;align=center;arcSize=50;" parent="LesqCqWZ4XYTkDxak_rp-2" vertex="1">
          <mxGeometry x="129.99999999999943" y="371.99999999999994" width="100" height="30" as="geometry" />
        </mxCell>
        <mxCell id="LesqCqWZ4XYTkDxak_rp-93" style="edgeStyle=orthogonalEdgeStyle;rounded=0;orthogonalLoop=1;jettySize=auto;html=1;exitX=0.25;exitY=0;exitDx=0;exitDy=0;entryX=0.5;entryY=0;entryDx=0;entryDy=0;" parent="LesqCqWZ4XYTkDxak_rp-2" source="LesqCqWZ4XYTkDxak_rp-86" target="LesqCqWZ4XYTkDxak_rp-90" edge="1">
          <mxGeometry relative="1" as="geometry">
            <Array as="points">
              <mxPoint x="220" y="441" />
            </Array>
          </mxGeometry>
        </mxCell>
        <mxCell id="LesqCqWZ4XYTkDxak_rp-86" value="" style="whiteSpace=wrap;html=1;rounded=0;shadow=0;comic=0;labelBackgroundColor=none;strokeWidth=1;fillColor=#000000;fontFamily=Verdana;fontSize=12;align=center;rotation=90;direction=south;" parent="LesqCqWZ4XYTkDxak_rp-2" vertex="1">
          <mxGeometry x="174.29" y="356.29" width="10" height="159.14" as="geometry" />
        </mxCell>
        <mxCell id="LesqCqWZ4XYTkDxak_rp-88" style="edgeStyle=orthogonalEdgeStyle;rounded=0;orthogonalLoop=1;jettySize=auto;html=1;exitX=0.5;exitY=1;exitDx=0;exitDy=0;entryX=0.418;entryY=0.481;entryDx=0;entryDy=0;entryPerimeter=0;" parent="LesqCqWZ4XYTkDxak_rp-2" source="LesqCqWZ4XYTkDxak_rp-80" target="LesqCqWZ4XYTkDxak_rp-86" edge="1">
          <mxGeometry relative="1" as="geometry" />
        </mxCell>
        <mxCell id="LesqCqWZ4XYTkDxak_rp-90" value="点击删除按钮" style="rounded=1;whiteSpace=wrap;html=1;shadow=0;comic=0;labelBackgroundColor=none;strokeWidth=1;fontFamily=Verdana;fontSize=12;align=center;arcSize=50;" parent="LesqCqWZ4XYTkDxak_rp-2" vertex="1">
          <mxGeometry x="170.00999999999942" y="499.7099999999999" width="100" height="30" as="geometry" />
        </mxCell>
        <mxCell id="LesqCqWZ4XYTkDxak_rp-91" value="点击修改按钮" style="rounded=1;whiteSpace=wrap;html=1;shadow=0;comic=0;labelBackgroundColor=none;strokeWidth=1;fontFamily=Verdana;fontSize=12;align=center;arcSize=50;" parent="LesqCqWZ4XYTkDxak_rp-2" vertex="1">
          <mxGeometry x="63.00999999999942" y="499.99999999999994" width="100" height="30" as="geometry" />
        </mxCell>
        <mxCell id="LesqCqWZ4XYTkDxak_rp-122" value="点击新增投资" style="rounded=1;whiteSpace=wrap;html=1;shadow=0;comic=0;labelBackgroundColor=none;strokeWidth=1;fontFamily=Verdana;fontSize=12;align=center;arcSize=50;" parent="LesqCqWZ4XYTkDxak_rp-2" vertex="1">
          <mxGeometry x="105.00999999999944" y="164.99999999999994" width="100" height="30" as="geometry" />
        </mxCell>
        <mxCell id="LesqCqWZ4XYTkDxak_rp-124" style="edgeStyle=orthogonalEdgeStyle;rounded=0;orthogonalLoop=1;jettySize=auto;html=1;exitX=0.75;exitY=0;exitDx=0;exitDy=0;entryX=0.543;entryY=0.056;entryDx=0;entryDy=0;entryPerimeter=0;" parent="LesqCqWZ4XYTkDxak_rp-2" source="LesqCqWZ4XYTkDxak_rp-86" target="LesqCqWZ4XYTkDxak_rp-91" edge="1">
          <mxGeometry relative="1" as="geometry">
            <Array as="points">
              <mxPoint x="117" y="441" />
              <mxPoint x="117" y="470" />
              <mxPoint x="117" y="470" />
            </Array>
          </mxGeometry>
        </mxCell>
        <mxCell id="kc-lhvbRt8Au_oQYsQzs-4" value="选择投资产品" style="rounded=1;whiteSpace=wrap;html=1;shadow=0;comic=0;labelBackgroundColor=none;strokeWidth=1;fontFamily=Verdana;fontSize=12;align=center;arcSize=50;" parent="LesqCqWZ4XYTkDxak_rp-2" vertex="1">
          <mxGeometry x="39.99999999999943" y="952" width="100" height="30" as="geometry" />
        </mxCell>
        <mxCell id="LesqCqWZ4XYTkDxak_rp-102" value="点击提交表单" style="rounded=1;whiteSpace=wrap;html=1;shadow=0;comic=0;labelBackgroundColor=none;strokeWidth=1;fontFamily=Verdana;fontSize=12;align=center;arcSize=50;" parent="LesqCqWZ4XYTkDxak_rp-2" vertex="1">
          <mxGeometry x="49.999999999999375" y="1150" width="100" height="30" as="geometry" />
        </mxCell>
        <mxCell id="poD8yt80yYuwHUa9PJjr-6" style="edgeStyle=orthogonalEdgeStyle;rounded=0;orthogonalLoop=1;jettySize=auto;html=1;exitX=0.25;exitY=0;exitDx=0;exitDy=0;entryX=0.5;entryY=0;entryDx=0;entryDy=0;" edge="1" parent="LesqCqWZ4XYTkDxak_rp-2" source="poD8yt80yYuwHUa9PJjr-1" target="LesqCqWZ4XYTkDxak_rp-50">
          <mxGeometry relative="1" as="geometry">
            <Array as="points">
              <mxPoint x="265" y="115" />
            </Array>
          </mxGeometry>
        </mxCell>
        <mxCell id="poD8yt80yYuwHUa9PJjr-1" value="" style="whiteSpace=wrap;html=1;rounded=0;shadow=0;comic=0;labelBackgroundColor=none;strokeWidth=1;fillColor=#000000;fontFamily=Verdana;fontSize=12;align=center;rotation=90;direction=south;fontStyle=4" vertex="1" parent="LesqCqWZ4XYTkDxak_rp-2">
          <mxGeometry x="215.01000000000002" y="25" width="10" height="170" as="geometry" />
        </mxCell>
        <mxCell id="poD8yt80yYuwHUa9PJjr-5" style="edgeStyle=orthogonalEdgeStyle;rounded=0;orthogonalLoop=1;jettySize=auto;html=1;exitX=0.75;exitY=0;exitDx=0;exitDy=0;entryX=0.572;entryY=0.151;entryDx=0;entryDy=0;entryPerimeter=0;" edge="1" parent="LesqCqWZ4XYTkDxak_rp-2" source="poD8yt80yYuwHUa9PJjr-1" target="LesqCqWZ4XYTkDxak_rp-122">
          <mxGeometry relative="1" as="geometry">
            <Array as="points">
              <mxPoint x="162" y="115" />
              <mxPoint x="162" y="140" />
              <mxPoint x="162" y="140" />
            </Array>
          </mxGeometry>
        </mxCell>
        <mxCell id="LesqCqWZ4XYTkDxak_rp-3" value="投资管理子系统" style="swimlane;startSize=20;html=1;" parent="LesqCqWZ4XYTkDxak_rp-1" vertex="1">
          <mxGeometry x="430" y="20" width="293.72" height="1340" as="geometry" />
        </mxCell>
        <mxCell id="LesqCqWZ4XYTkDxak_rp-54" value="显示投资详情" style="rounded=1;whiteSpace=wrap;html=1;shadow=0;comic=0;labelBackgroundColor=none;strokeWidth=1;fontFamily=Verdana;fontSize=12;align=center;arcSize=50;" parent="LesqCqWZ4XYTkDxak_rp-3" vertex="1">
          <mxGeometry x="112.99999999999949" y="165" width="100" height="30" as="geometry" />
        </mxCell>
        <mxCell id="LesqCqWZ4XYTkDxak_rp-69" style="edgeStyle=orthogonalEdgeStyle;rounded=0;orthogonalLoop=1;jettySize=auto;html=1;exitX=1;exitY=0.5;exitDx=0;exitDy=0;entryX=0.5;entryY=0;entryDx=0;entryDy=0;" parent="LesqCqWZ4XYTkDxak_rp-3" source="LesqCqWZ4XYTkDxak_rp-62" target="LesqCqWZ4XYTkDxak_rp-65" edge="1">
          <mxGeometry relative="1" as="geometry" />
        </mxCell>
        <mxCell id="LesqCqWZ4XYTkDxak_rp-83" style="edgeStyle=orthogonalEdgeStyle;rounded=0;orthogonalLoop=1;jettySize=auto;html=1;exitX=0.5;exitY=1;exitDx=0;exitDy=0;entryX=0.5;entryY=0;entryDx=0;entryDy=0;" parent="LesqCqWZ4XYTkDxak_rp-3" source="LesqCqWZ4XYTkDxak_rp-62" target="LesqCqWZ4XYTkDxak_rp-74" edge="1">
          <mxGeometry relative="1" as="geometry" />
        </mxCell>
        <mxCell id="LesqCqWZ4XYTkDxak_rp-62" value="&lt;font style=&quot;font-size: 10px;&quot;&gt;验证投资时间是否合&lt;br&gt;法&lt;/font&gt;" style="rhombus;whiteSpace=wrap;html=1;" parent="LesqCqWZ4XYTkDxak_rp-3" vertex="1">
          <mxGeometry x="52.14999999999949" y="357" width="127.71" height="60" as="geometry" />
        </mxCell>
        <mxCell id="LesqCqWZ4XYTkDxak_rp-73" style="edgeStyle=orthogonalEdgeStyle;rounded=0;orthogonalLoop=1;jettySize=auto;html=1;" parent="LesqCqWZ4XYTkDxak_rp-3" source="LesqCqWZ4XYTkDxak_rp-65" target="LesqCqWZ4XYTkDxak_rp-72" edge="1">
          <mxGeometry relative="1" as="geometry" />
        </mxCell>
        <mxCell id="LesqCqWZ4XYTkDxak_rp-65" value="显示投资信息" style="rounded=1;whiteSpace=wrap;html=1;shadow=0;comic=0;labelBackgroundColor=none;strokeWidth=1;fontFamily=Verdana;fontSize=12;align=center;arcSize=50;" parent="LesqCqWZ4XYTkDxak_rp-3" vertex="1">
          <mxGeometry x="171.99999999999955" y="482" width="100" height="30" as="geometry" />
        </mxCell>
        <mxCell id="LesqCqWZ4XYTkDxak_rp-72" value="" style="ellipse;html=1;shape=endState;fillColor=#000000;strokeColor=#ff0000;" parent="LesqCqWZ4XYTkDxak_rp-3" vertex="1">
          <mxGeometry x="206.99999999999955" y="552" width="30" height="30" as="geometry" />
        </mxCell>
        <mxCell id="LesqCqWZ4XYTkDxak_rp-74" value="提示时间不合法" style="rounded=1;whiteSpace=wrap;html=1;shadow=0;comic=0;labelBackgroundColor=none;strokeWidth=1;fontFamily=Verdana;fontSize=12;align=center;arcSize=50;" parent="LesqCqWZ4XYTkDxak_rp-3" vertex="1">
          <mxGeometry x="66.00999999999954" y="482" width="100" height="30" as="geometry" />
        </mxCell>
        <mxCell id="LesqCqWZ4XYTkDxak_rp-76" value="时间不合法" style="edgeLabel;html=1;align=center;verticalAlign=middle;resizable=0;points=[];" parent="LesqCqWZ4XYTkDxak_rp-3" connectable="0" vertex="1">
          <mxGeometry x="102.00297504246032" y="452.0011800587854" as="geometry">
            <mxPoint x="49" y="-5" as="offset" />
          </mxGeometry>
        </mxCell>
        <mxCell id="LesqCqWZ4XYTkDxak_rp-97" style="edgeStyle=orthogonalEdgeStyle;rounded=0;orthogonalLoop=1;jettySize=auto;html=1;exitX=0.5;exitY=1;exitDx=0;exitDy=0;" parent="LesqCqWZ4XYTkDxak_rp-3" source="LesqCqWZ4XYTkDxak_rp-94" target="LesqCqWZ4XYTkDxak_rp-96" edge="1">
          <mxGeometry relative="1" as="geometry" />
        </mxCell>
        <mxCell id="LesqCqWZ4XYTkDxak_rp-94" value="提示投资删除" style="rounded=1;whiteSpace=wrap;html=1;shadow=0;comic=0;labelBackgroundColor=none;strokeWidth=1;fontFamily=Verdana;fontSize=12;align=center;arcSize=50;" parent="LesqCqWZ4XYTkDxak_rp-3" vertex="1">
          <mxGeometry x="66.00999999999942" y="602" width="100" height="30" as="geometry" />
        </mxCell>
        <mxCell id="LesqCqWZ4XYTkDxak_rp-99" style="edgeStyle=orthogonalEdgeStyle;rounded=0;orthogonalLoop=1;jettySize=auto;html=1;exitX=0.5;exitY=1;exitDx=0;exitDy=0;" parent="LesqCqWZ4XYTkDxak_rp-3" source="LesqCqWZ4XYTkDxak_rp-96" target="LesqCqWZ4XYTkDxak_rp-98" edge="1">
          <mxGeometry relative="1" as="geometry" />
        </mxCell>
        <mxCell id="LesqCqWZ4XYTkDxak_rp-96" value="删除投资" style="rounded=1;whiteSpace=wrap;html=1;shadow=0;comic=0;labelBackgroundColor=none;strokeWidth=1;fontFamily=Verdana;fontSize=12;align=center;arcSize=50;" parent="LesqCqWZ4XYTkDxak_rp-3" vertex="1">
          <mxGeometry x="66.00999999999942" y="664" width="100" height="30" as="geometry" />
        </mxCell>
        <mxCell id="LesqCqWZ4XYTkDxak_rp-98" value="" style="ellipse;html=1;shape=endState;fillColor=#000000;strokeColor=#ff0000;" parent="LesqCqWZ4XYTkDxak_rp-3" vertex="1">
          <mxGeometry x="101.00999999999954" y="724" width="30" height="30" as="geometry" />
        </mxCell>
        <mxCell id="kc-lhvbRt8Au_oQYsQzs-11" style="edgeStyle=orthogonalEdgeStyle;rounded=0;orthogonalLoop=1;jettySize=auto;html=1;" parent="LesqCqWZ4XYTkDxak_rp-3" source="LesqCqWZ4XYTkDxak_rp-100" target="kc-lhvbRt8Au_oQYsQzs-9" edge="1">
          <mxGeometry relative="1" as="geometry" />
        </mxCell>
        <mxCell id="LesqCqWZ4XYTkDxak_rp-100" value="获取市场信息" style="rounded=1;whiteSpace=wrap;html=1;shadow=0;comic=0;labelBackgroundColor=none;strokeWidth=1;fontFamily=Verdana;fontSize=12;align=center;arcSize=50;" parent="LesqCqWZ4XYTkDxak_rp-3" vertex="1">
          <mxGeometry x="66.00999999999942" y="772" width="100" height="30" as="geometry" />
        </mxCell>
        <mxCell id="LesqCqWZ4XYTkDxak_rp-109" value="验证信息是否合法" style="rhombus;whiteSpace=wrap;html=1;" parent="LesqCqWZ4XYTkDxak_rp-3" vertex="1">
          <mxGeometry x="40" y="1135" width="110" height="60" as="geometry" />
        </mxCell>
        <mxCell id="LesqCqWZ4XYTkDxak_rp-110" value="提示投资变动" style="rounded=1;whiteSpace=wrap;html=1;shadow=0;comic=0;labelBackgroundColor=none;strokeWidth=1;fontFamily=Verdana;fontSize=12;align=center;arcSize=50;" parent="LesqCqWZ4XYTkDxak_rp-3" vertex="1">
          <mxGeometry x="190.99999999999957" y="1150.5" width="80" height="30" as="geometry" />
        </mxCell>
        <mxCell id="LesqCqWZ4XYTkDxak_rp-111" style="edgeStyle=orthogonalEdgeStyle;rounded=0;orthogonalLoop=1;jettySize=auto;html=1;entryX=0;entryY=0.5;entryDx=0;entryDy=0;exitX=1;exitY=0.5;exitDx=0;exitDy=0;" parent="LesqCqWZ4XYTkDxak_rp-3" source="LesqCqWZ4XYTkDxak_rp-109" target="LesqCqWZ4XYTkDxak_rp-110" edge="1">
          <mxGeometry relative="1" as="geometry">
            <mxPoint x="357.99999999999955" y="1164.8488372093025" as="targetPoint" />
            <mxPoint x="310.99999999999955" y="1165.5" as="sourcePoint" />
          </mxGeometry>
        </mxCell>
        <mxCell id="LesqCqWZ4XYTkDxak_rp-112" value="合法" style="edgeLabel;html=1;align=center;verticalAlign=middle;resizable=0;points=[];" parent="LesqCqWZ4XYTkDxak_rp-111" vertex="1" connectable="0">
          <mxGeometry x="-0.1505" y="-1" relative="1" as="geometry">
            <mxPoint as="offset" />
          </mxGeometry>
        </mxCell>
        <mxCell id="LesqCqWZ4XYTkDxak_rp-118" value="保存新信息" style="rounded=1;whiteSpace=wrap;html=1;shadow=0;comic=0;labelBackgroundColor=none;strokeWidth=1;fontFamily=Verdana;fontSize=12;align=center;arcSize=50;" parent="LesqCqWZ4XYTkDxak_rp-3" vertex="1">
          <mxGeometry x="188.28" y="1203" width="83.72" height="30" as="geometry" />
        </mxCell>
        <mxCell id="LesqCqWZ4XYTkDxak_rp-119" style="edgeStyle=orthogonalEdgeStyle;rounded=0;orthogonalLoop=1;jettySize=auto;html=1;entryX=0.505;entryY=0.093;entryDx=0;entryDy=0;entryPerimeter=0;" parent="LesqCqWZ4XYTkDxak_rp-3" source="LesqCqWZ4XYTkDxak_rp-110" target="LesqCqWZ4XYTkDxak_rp-118" edge="1">
          <mxGeometry relative="1" as="geometry" />
        </mxCell>
        <mxCell id="LesqCqWZ4XYTkDxak_rp-120" value="" style="ellipse;html=1;shape=endState;fillColor=#000000;strokeColor=#ff0000;" parent="LesqCqWZ4XYTkDxak_rp-3" vertex="1">
          <mxGeometry x="212.99999999999955" y="1270" width="30" height="30" as="geometry" />
        </mxCell>
        <mxCell id="LesqCqWZ4XYTkDxak_rp-121" style="edgeStyle=orthogonalEdgeStyle;rounded=0;orthogonalLoop=1;jettySize=auto;html=1;entryX=0.564;entryY=0.179;entryDx=0;entryDy=0;entryPerimeter=0;" parent="LesqCqWZ4XYTkDxak_rp-3" source="LesqCqWZ4XYTkDxak_rp-118" target="LesqCqWZ4XYTkDxak_rp-120" edge="1">
          <mxGeometry relative="1" as="geometry" />
        </mxCell>
        <mxCell id="kc-lhvbRt8Au_oQYsQzs-1" value="显示投资表单" style="rounded=1;whiteSpace=wrap;html=1;shadow=0;comic=0;labelBackgroundColor=none;strokeWidth=1;fontFamily=Verdana;fontSize=12;align=center;arcSize=50;" parent="LesqCqWZ4XYTkDxak_rp-3" vertex="1">
          <mxGeometry x="66.0099999999994" y="952" width="100" height="30" as="geometry" />
        </mxCell>
        <mxCell id="kc-lhvbRt8Au_oQYsQzs-9" value="显示投资产品列表" style="rounded=1;whiteSpace=wrap;html=1;shadow=0;comic=0;labelBackgroundColor=none;strokeWidth=1;fontFamily=Verdana;fontSize=12;align=center;arcSize=50;" parent="LesqCqWZ4XYTkDxak_rp-3" vertex="1">
          <mxGeometry x="66.00999999999942" y="852" width="100" height="30" as="geometry" />
        </mxCell>
        <mxCell id="LesqCqWZ4XYTkDxak_rp-84" style="edgeStyle=orthogonalEdgeStyle;rounded=0;orthogonalLoop=1;jettySize=auto;html=1;exitX=0.5;exitY=1;exitDx=0;exitDy=0;entryX=0.5;entryY=1;entryDx=0;entryDy=0;" parent="LesqCqWZ4XYTkDxak_rp-1" source="LesqCqWZ4XYTkDxak_rp-74" target="LesqCqWZ4XYTkDxak_rp-56" edge="1">
          <mxGeometry relative="1" as="geometry" />
        </mxCell>
        <mxCell id="LesqCqWZ4XYTkDxak_rp-95" style="edgeStyle=orthogonalEdgeStyle;rounded=0;orthogonalLoop=1;jettySize=auto;html=1;exitX=0.5;exitY=1;exitDx=0;exitDy=0;entryX=0;entryY=0.5;entryDx=0;entryDy=0;" parent="LesqCqWZ4XYTkDxak_rp-1" source="LesqCqWZ4XYTkDxak_rp-90" target="LesqCqWZ4XYTkDxak_rp-94" edge="1">
          <mxGeometry relative="1" as="geometry" />
        </mxCell>
        <mxCell id="kc-lhvbRt8Au_oQYsQzs-12" style="edgeStyle=orthogonalEdgeStyle;rounded=0;orthogonalLoop=1;jettySize=auto;html=1;entryX=0.5;entryY=0;entryDx=0;entryDy=0;" parent="LesqCqWZ4XYTkDxak_rp-1" source="kc-lhvbRt8Au_oQYsQzs-9" target="kc-lhvbRt8Au_oQYsQzs-4" edge="1">
          <mxGeometry relative="1" as="geometry" />
        </mxCell>
        <mxCell id="kc-lhvbRt8Au_oQYsQzs-13" style="edgeStyle=orthogonalEdgeStyle;rounded=0;orthogonalLoop=1;jettySize=auto;html=1;entryX=0;entryY=0.5;entryDx=0;entryDy=0;" parent="LesqCqWZ4XYTkDxak_rp-1" source="kc-lhvbRt8Au_oQYsQzs-4" target="kc-lhvbRt8Au_oQYsQzs-1" edge="1">
          <mxGeometry relative="1" as="geometry" />
        </mxCell>
        <mxCell id="kc-lhvbRt8Au_oQYsQzs-15" style="edgeStyle=orthogonalEdgeStyle;rounded=0;orthogonalLoop=1;jettySize=auto;html=1;exitX=0.5;exitY=1;exitDx=0;exitDy=0;entryX=0.5;entryY=0;entryDx=0;entryDy=0;" parent="LesqCqWZ4XYTkDxak_rp-1" source="LesqCqWZ4XYTkDxak_rp-91" target="kc-lhvbRt8Au_oQYsQzs-1" edge="1">
          <mxGeometry relative="1" as="geometry">
            <Array as="points">
              <mxPoint x="113" y="942" />
              <mxPoint x="546" y="942" />
            </Array>
          </mxGeometry>
        </mxCell>
        <mxCell id="kc-lhvbRt8Au_oQYsQzs-17" style="edgeStyle=orthogonalEdgeStyle;rounded=0;orthogonalLoop=1;jettySize=auto;html=1;" parent="LesqCqWZ4XYTkDxak_rp-1" source="kc-lhvbRt8Au_oQYsQzs-1" target="LesqCqWZ4XYTkDxak_rp-102" edge="1">
          <mxGeometry relative="1" as="geometry">
            <Array as="points">
              <mxPoint x="545.9999999999995" y="1042" />
              <mxPoint x="89.99999999999955" y="1042" />
            </Array>
          </mxGeometry>
        </mxCell>
        <mxCell id="X7rcp8GAHGfUV3pNXVG_-2" style="edgeStyle=orthogonalEdgeStyle;rounded=0;orthogonalLoop=1;jettySize=auto;html=1;entryX=0;entryY=0.5;entryDx=0;entryDy=0;" parent="LesqCqWZ4XYTkDxak_rp-1" source="LesqCqWZ4XYTkDxak_rp-102" target="LesqCqWZ4XYTkDxak_rp-109" edge="1">
          <mxGeometry relative="1" as="geometry" />
        </mxCell>
        <mxCell id="poD8yt80yYuwHUa9PJjr-4" style="edgeStyle=orthogonalEdgeStyle;rounded=0;orthogonalLoop=1;jettySize=auto;html=1;exitX=0;exitY=0.25;exitDx=0;exitDy=0;entryX=0;entryY=0.5;entryDx=0;entryDy=0;" edge="1" parent="LesqCqWZ4XYTkDxak_rp-1" source="LesqCqWZ4XYTkDxak_rp-122" target="LesqCqWZ4XYTkDxak_rp-100">
          <mxGeometry relative="1" as="geometry">
            <Array as="points">
              <mxPoint x="30" y="193" />
              <mxPoint x="30" y="807" />
            </Array>
          </mxGeometry>
        </mxCell>
        <mxCell id="X7rcp8GAHGfUV3pNXVG_-1" value="填写投资表单" style="rounded=1;whiteSpace=wrap;html=1;shadow=0;comic=0;labelBackgroundColor=none;strokeWidth=1;fontFamily=Verdana;fontSize=12;align=center;arcSize=50;" parent="1" vertex="1">
          <mxGeometry x="189.99999999999983" y="1272" width="100" height="30" as="geometry" />
        </mxCell>
      </root>
    </mxGraphModel>
  </diagram>
</mxfile>
